
<svg xmlns="http://www.w3.org/2000/svg"
     class="svg-snoweb svg-theme-light"
     x="0"
     y="0"
     width="100%"
     height="100%"
     viewBox="0 0 100 100"
     preserveAspectRatio="xMidYMid meet"
>
<defs>
    <style>
        
            
            
            
        

        .svg-fill-primary {
            fill: #FFFFFF;
        }

        .svg-fill-secondary {
            fill: ;
        }

        .svg-fill-tertiary {
            fill: ;
        }

        .svg-stroke-primary {
            stroke: #FFFFFF;
        }

        .svg-stroke-secondary {
            stroke: ;
        }

        .svg-stroke-tertiary {
            stroke: ;
        }
    </style>
</defs>
    <path d="M18.3,18.3h7.1l1.4,7.1m5.6,28.1H67.6L81.7,25.4H26.8m5.6,28.1L26.8,25.4m5.6,28.1-8.1,8.1a3.5,3.5,0,0,0,2.5,6H67.6m0,0a7,7,0,0,0-7,7,7,7,0,1,0,14,0A7,7,0,0,0,67.6,67.6Zm-28.2,7a7,7,0,1,1-14,0,7,7,0,0,1,14,0Z"
      fill="none" class="svg-stroke-primary" stroke-linecap="round" stroke-linejoin="round" stroke-width="8"/>

</svg>